<svg width="20" height="20" viewBox="0 0 20 20" fill="none" xmlns="http://www.w3.org/2000/svg">
<path d="M16.6666 8.33268C16.6666 12.4935 12.0508 16.8268 10.5008 18.1652C10.3564 18.2738 10.1806 18.3325 9.99992 18.3325C9.81925 18.3325 9.64348 18.2738 9.49909 18.1652C7.94909 16.8268 3.33325 12.4935 3.33325 8.33268C3.33325 6.56457 4.03563 4.86888 5.28587 3.61864C6.53612 2.36839 8.23181 1.66602 9.99992 1.66602C11.768 1.66602 13.4637 2.36839 14.714 3.61864C15.9642 4.86888 16.6666 6.56457 16.6666 8.33268Z" stroke="#2F2860" stroke-width="2" stroke-linecap="round" stroke-linejoin="round"/>
<path d="M9.99992 10.8327C11.3806 10.8327 12.4999 9.71339 12.4999 8.33268C12.4999 6.95197 11.3806 5.83268 9.99992 5.83268C8.61921 5.83268 7.49992 6.95197 7.49992 8.33268C7.49992 9.71339 8.61921 10.8327 9.99992 10.8327Z" stroke="#2F2860" stroke-width="2" stroke-linecap="round" stroke-linejoin="round"/>
</svg>
