<svg width="45" height="44" viewBox="0 0 45 44" fill="none" xmlns="http://www.w3.org/2000/svg">
<path d="M20.5182 28.3553H24.429C25.4662 28.3553 26.4609 27.9433 27.1943 27.2099C27.9277 26.4765 28.3397 25.4818 28.3397 24.4446C28.3397 23.4074 27.9277 22.4127 27.1943 21.6793C26.4609 20.9459 25.4662 20.5339 24.429 20.5339H18.5629C17.3897 20.5339 16.412 20.9249 15.8254 21.7071L4.87529 32.2661M12.6968 40.0876L15.8254 37.35C16.412 36.5679 17.3897 36.1768 18.5629 36.1768H26.3843C28.5353 36.1768 30.4906 35.3947 31.8594 33.8304L40.8541 25.2268C41.6086 24.5137 42.049 23.5301 42.0784 22.4923C42.1077 21.4545 41.7236 20.4476 41.0105 19.6931C40.2974 18.9385 39.3138 18.4981 38.2761 18.4688C37.2383 18.4394 36.2314 18.8236 35.4768 19.5366L27.2643 27.1626M2.91992 30.3107L14.6521 42.0429M35.9657 16.6231C35.9657 19.7549 33.4269 22.2937 30.2951 22.2937C27.1633 22.2937 24.6245 19.7549 24.6245 16.6231C24.6245 13.4914 27.1633 10.9526 30.2951 10.9526C33.4269 10.9526 35.9657 13.4914 35.9657 16.6231ZM16.6075 8.80165C16.6075 12.0414 13.9812 14.6678 10.7414 14.6678C7.50164 14.6678 4.87529 12.0414 4.87529 8.80165C4.87529 5.56189 7.50164 2.93555 10.7414 2.93555C13.9812 2.93555 16.6075 5.56189 16.6075 8.80165Z" stroke="#2F2860" stroke-width="3.91074" stroke-linecap="round" stroke-linejoin="round"/>
</svg>
